<svg width="640" height="480" viewBox="0 0 640 480" fill="none" xmlns="http://www.w3.org/2000/svg">
  <rect width="640" height="480" rx="40" fill="url(#paint0_linear)"/>
  <g filter="url(#filter0_f)">
    <circle cx="130" cy="110" r="120" fill="url(#paint1_radial)" fill-opacity="0.85"/>
  </g>
  <g filter="url(#filter1_f)">
    <circle cx="520" cy="360" r="140" fill="url(#paint2_radial)" fill-opacity="0.75"/>
  </g>
  <path d="M154 164c0-10.493 8.507-19 19-19h219c10.493 0 19 8.507 19 19s-8.507 19-19 19H173c-10.493 0-19-8.507-19-19z" fill="url(#paint3_linear)"/>
  <path d="M198 230c0-10.493 8.507-19 19-19h259c10.493 0 19 8.507 19 19s-8.507 19-19 19H217c-10.493 0-19-8.507-19-19z" fill="url(#paint4_linear)"/>
  <rect x="138" y="109" width="364" height="223" rx="32" stroke="url(#paint5_linear)" stroke-width="3" opacity="0.85"/>
  <g opacity="0.95">
    <path d="M178 278c0-10.493 8.507-19 19-19h176c10.493 0 19 8.507 19 19s-8.507 19-19 19H197c-10.493 0-19-8.507-19-19z" fill="url(#paint6_linear)"/>
  </g>
  <g filter="url(#filter2_dd)">
    <rect x="229" y="73" width="192" height="192" rx="40" fill="url(#paint7_linear)"/>
    <path d="M320 129c-33.137 0-60 26.863-60 60 0 33.137 26.863 60 60 60s60-26.863 60-60c0-33.137-26.863-60-60-60zm30.364 70.364l-32 18c-1.096.616-2.329.936-3.573.936-1.244 0-2.477-.32-3.573-.936-2.252-1.266-3.634-3.645-3.634-6.232v-36c0-2.587 1.382-4.966 3.634-6.232 2.253-1.266 5.016-1.265 7.146.001l32 18c2.252 1.266 3.634 3.645 3.634 6.232s-1.382 4.966-3.634 6.232z" fill="white"/>
  </g>
  <g filter="url(#filter3_dd)">
    <rect x="409" y="266" width="120" height="120" rx="28" fill="url(#paint8_linear)"/>
    <path d="M469 318c-11.046 0-20 8.954-20 20s8.954 20 20 20 20-8.954 20-20-8.954-20-20-20zm0 52c-17.121 0-32-13.879-32-32s14.879-32 32-32 32 13.879 32 32-14.879 32-32 32z" fill="white"/>
  </g>
  <g filter="url(#filter4_dd)">
    <rect x="112" y="266" width="120" height="120" rx="28" fill="url(#paint9_linear)"/>
    <path d="M208 346h-32c-4.418 0-8-3.582-8-8v-40c0-4.418 3.582-8 8-8h32c4.418 0 8 3.582 8 8v40c0 4.418-3.582 8-8 8zm-28-20h24v-24h-24v24z" fill="white"/>
  </g>
  <defs>
    <filter id="filter0_f" x="-70" y="-90" width="400" height="400" filterUnits="userSpaceOnUse" color-interpolation-filters="sRGB">
      <feGaussianBlur stdDeviation="40"/>
    </filter>
    <filter id="filter1_f" x="300" y="140" width="440" height="440" filterUnits="userSpaceOnUse" color-interpolation-filters="sRGB">
      <feGaussianBlur stdDeviation="40"/>
    </filter>
    <filter id="filter2_dd" x="201" y="45" width="248" height="248" filterUnits="userSpaceOnUse" color-interpolation-filters="sRGB">
      <feOffset dy="14"/>
      <feGaussianBlur stdDeviation="14"/>
      <feColorMatrix type="matrix" values="0 0 0 0 0.118431 0 0 0 0 0.183333 0 0 0 0 0.3375 0 0 0 0.24 0"/>
      <feBlend mode="normal" in2="BackgroundImageFix" result="effect1_dropShadow"/>
      <feBlend mode="normal" in="SourceGraphic" in2="effect1_dropShadow" result="shape"/>
    </filter>
    <filter id="filter3_dd" x="381" y="238" width="176" height="176" filterUnits="userSpaceOnUse" color-interpolation-filters="sRGB">
      <feOffset dy="12"/>
      <feGaussianBlur stdDeviation="12"/>
      <feColorMatrix type="matrix" values="0 0 0 0 0.09375 0 0 0 0 0.125 0 0 0 0 0.25 0 0 0 0.18 0"/>
      <feBlend mode="normal" in2="BackgroundImageFix" result="effect1_dropShadow"/>
      <feBlend mode="normal" in="SourceGraphic" in2="effect1_dropShadow" result="shape"/>
    </filter>
    <filter id="filter4_dd" x="84" y="238" width="176" height="176" filterUnits="userSpaceOnUse" color-interpolation-filters="sRGB">
      <feOffset dy="12"/>
      <feGaussianBlur stdDeviation="12"/>
      <feColorMatrix type="matrix" values="0 0 0 0 0.09375 0 0 0 0 0.125 0 0 0 0 0.25 0 0 0 0.18 0"/>
      <feBlend mode="normal" in2="BackgroundImageFix" result="effect1_dropShadow"/>
      <feBlend mode="normal" in="SourceGraphic" in2="effect1_dropShadow" result="shape"/>
    </filter>
    <linearGradient id="paint0_linear" x1="160" y1="20" x2="520" y2="460" gradientUnits="userSpaceOnUse">
      <stop stop-color="#0f172a"/>
      <stop offset="0.45" stop-color="#1e40af"/>
      <stop offset="1" stop-color="#0f172a"/>
    </linearGradient>
    <radialGradient id="paint1_radial" cx="0" cy="0" r="1" gradientUnits="userSpaceOnUse" gradientTransform="rotate(50 27.4 133.4) scale(146.5)">
      <stop stop-color="#38bdf8"/>
      <stop offset="1" stop-color="#38bdf8" stop-opacity="0"/>
    </radialGradient>
    <radialGradient id="paint2_radial" cx="0" cy="0" r="1" gradientUnits="userSpaceOnUse" gradientTransform="rotate(130 134.6 238.8) scale(162.4)">
      <stop stop-color="#a855f7"/>
      <stop offset="1" stop-color="#a855f7" stop-opacity="0"/>
    </radialGradient>
    <linearGradient id="paint3_linear" x1="154" y1="164" x2="411" y2="164" gradientUnits="userSpaceOnUse">
      <stop stop-color="#22d3ee" stop-opacity="0.8"/>
      <stop offset="1" stop-color="#a855f7" stop-opacity="0.8"/>
    </linearGradient>
    <linearGradient id="paint4_linear" x1="198" y1="230" x2="495" y2="230" gradientUnits="userSpaceOnUse">
      <stop stop-color="#60a5fa"/>
      <stop offset="1" stop-color="#38bdf8"/>
    </linearGradient>
    <linearGradient id="paint5_linear" x1="138" y1="109" x2="502" y2="332" gradientUnits="userSpaceOnUse">
      <stop stop-color="#38bdf8" stop-opacity="0.7"/>
      <stop offset="1" stop-color="#a855f7" stop-opacity="0.7"/>
    </linearGradient>
    <linearGradient id="paint6_linear" x1="178" y1="278" x2="392" y2="278" gradientUnits="userSpaceOnUse">
      <stop stop-color="#34d399" stop-opacity="0.8"/>
      <stop offset="1" stop-color="#22d3ee" stop-opacity="0.8"/>
    </linearGradient>
    <linearGradient id="paint7_linear" x1="229" y1="73" x2="421" y2="265" gradientUnits="userSpaceOnUse">
      <stop stop-color="#1d4ed8"/>
      <stop offset="1" stop-color="#22d3ee"/>
    </linearGradient>
    <linearGradient id="paint8_linear" x1="409" y1="266" x2="529" y2="386" gradientUnits="userSpaceOnUse">
      <stop stop-color="#8b5cf6"/>
      <stop offset="1" stop-color="#6366f1"/>
    </linearGradient>
    <linearGradient id="paint9_linear" x1="112" y1="266" x2="232" y2="386" gradientUnits="userSpaceOnUse">
      <stop stop-color="#0ea5e9"/>
      <stop offset="1" stop-color="#14b8a6"/>
    </linearGradient>
  </defs>
</svg>
